<svg width="879" height="573" viewBox="0 0 879 573" fill="none" xmlns="http://www.w3.org/2000/svg">
<g clip-path="url(#clip0)">
<rect width="103.211" height="127.112" transform="matrix(-1 0 0 1 642.972 385.789)" fill="#6172CC"/>
<path fill-rule="evenodd" clip-rule="evenodd" d="M673.076 261.46C661.95 252.987 634.019 249.177 622.144 257.335C610.416 265.527 609.138 278.776 603.672 290.963C598.516 288.531 590 292.014 588.505 296.799C586.651 299.056 586.568 305.397 585.289 308.431C529.653 317.288 521.207 360.667 514.51 409.915C505.651 459.889 485.54 509.755 494.271 561.179C493.133 562.825 492.237 564.425 491.407 566.326C489.42 569.707 491.98 574.494 495.988 574.308C501.176 573.853 506.312 573.231 511.525 573.036C525.974 572.534 540.437 572.594 554.892 572.778L556.863 572.804C629.712 573.711 702.556 575.498 775.408 575.972C778.051 575.976 779.345 573.605 778.992 571.267C778.281 566.559 777.622 561.848 776.934 557.138C794.165 561.69 812.484 562.835 829.666 557.617C830.868 556.392 826.865 557.056 826.23 556.87C842.044 546.063 837.321 523.297 835.921 506.9C827.21 450.713 824.14 388.547 790.486 340.602C775.927 321.035 754.582 305.544 730.055 302.058L729.375 301.965C722.203 301.009 714.21 300.701 707.94 296.799C700.888 291.169 697.882 280.765 690.463 280.668C688.013 280.635 684.681 283.735 681.094 285.839C680.827 281.21 678.332 277.303 677.781 273.714L677.736 273.407C677.162 269.222 677.949 265.457 673.076 261.46ZM553.509 411.4C569.144 400.537 609.533 405.995 610.458 406.603C612.494 407.942 613.37 408.061 614.472 409.8C615.559 409.944 616.645 410.094 617.73 410.248C619.908 410.959 618.294 413.637 615.779 412.682C617.292 419.206 612.84 423.846 611.068 430.296C610.492 432.39 611.047 436.157 611.068 438.297C610.896 441.025 607.88 444.248 608.382 446.985C610.17 456.716 619.868 466.209 615.779 475.646C613.07 480.976 604.923 483.694 599.507 485.506C588.285 489.814 568.731 485.344 562.211 475.646C558.733 470.474 554.704 457.425 552.63 453.378L552.171 446.958C551.037 430.998 550.029 413.818 553.509 411.4Z" fill="#FAFAFA"/>
<path fill-rule="evenodd" clip-rule="evenodd" d="M691.042 280.697L686.567 283.443L660.58 296.29C655.542 297.701 653.023 299.391 653.023 301.362V321.429C653.023 324.115 648.296 330.201 638.84 339.687L630.105 330.978L630.3 329.838C631.132 324.925 631.547 321.638 631.547 319.978C631.547 318.193 623.001 311.415 605.909 299.646L598.431 292.606L599.229 290.181C594.618 290.399 589.618 293.238 588.505 296.799C586.651 299.056 586.568 305.397 585.289 308.431C529.653 317.288 521.207 360.667 514.51 409.915C505.651 459.889 485.54 509.755 494.271 561.179C493.133 562.825 492.237 564.425 491.407 566.326C489.42 569.707 491.98 574.494 495.988 574.308C501.176 573.853 506.312 573.231 511.525 573.036C525.974 572.534 540.437 572.594 554.892 572.778L556.863 572.804C629.712 573.711 702.556 575.498 775.408 575.972C778.051 575.976 779.345 573.605 778.992 571.267C778.281 566.559 777.622 561.848 776.934 557.138C794.165 561.69 812.484 562.835 829.666 557.617C830.868 556.392 826.865 557.056 826.23 556.87C842.044 546.063 837.321 523.297 835.921 506.9C827.21 450.713 824.14 388.547 790.486 340.602C775.927 321.035 754.582 305.544 730.055 302.058L729.375 301.965L728.689 301.876C721.697 300.986 714.011 300.577 707.94 296.799C701.074 291.317 698.044 281.311 691.042 280.697ZM628.774 398.48C631.323 398.48 636.543 402.439 644.434 410.356L645.129 410.677C654.668 415.108 660.987 418.952 664.087 422.209L664.198 422.326C667.329 425.686 673.53 434.62 682.801 449.128L696.226 457.068H701.305L704.922 483.303L696.226 502.036L676.528 495.4L644.434 486.94L626.017 468.254L615.628 464.766C616.889 468.408 617.346 472.031 615.779 475.646C613.07 480.977 604.924 483.694 599.507 485.506C588.285 489.814 568.731 485.344 562.211 475.646C558.733 470.474 554.704 457.426 552.63 453.378L552.036 445.038C550.964 429.647 550.168 413.721 553.509 411.4C569.145 400.537 609.534 405.995 610.458 406.603C612.494 407.942 613.371 408.061 614.472 409.8L615.042 409.876L611.836 405.529L612.971 404.923C621.07 400.628 626.337 398.48 628.774 398.48ZM615.779 412.682C617.227 418.928 613.209 423.447 611.309 429.481L616.164 420.184L616.164 412.802C616.039 412.772 615.91 412.732 615.779 412.682Z" fill="white"/>
<path fill-rule="evenodd" clip-rule="evenodd" d="M693.187 279.727C692.108 278.77 690.511 279.972 691.196 281.263C692.738 284.165 694.319 286.916 696.388 289.481C697.642 291.037 698.986 292.508 700.347 293.963C696.853 296.986 693.856 300.74 691.026 304.257C687.407 308.756 683.986 313.446 679.924 317.562C675.918 321.622 671.488 324.461 666.132 326.353L665.05 326.729C659.67 328.618 653.919 331.169 650.886 336.264C650.288 337.269 651.492 338.51 652.504 337.883C657.775 334.62 663.967 333.963 669.703 331.807C675.245 329.724 680.075 326.518 684.344 322.427C688.604 318.342 692.182 313.695 695.914 309.146C699.604 304.648 703.578 300.806 707.943 297.001C714.679 301.533 722.368 303.505 730.186 305.441L731.04 305.653C738.867 307.591 746.653 309.842 753.997 313.217C760.472 316.193 766.84 319.746 772.115 324.588C777.713 329.726 782.071 336.289 786.059 342.708C794.98 357.067 801.252 372.798 806.774 388.72C812.517 405.282 817.32 422.175 821.198 439.269C823.17 447.964 824.772 456.72 826.089 465.538C826.722 469.785 827.285 474.041 827.78 478.307C828.307 482.862 828.429 487.548 829.826 491.927C830.425 493.804 831.839 494.583 833.255 494.517L833.542 498.113C833.924 502.908 834.279 507.705 834.399 512.529C834.598 520.552 834.508 528.551 833.931 536.557L833.849 537.648C833.396 543.491 832.383 550.056 827.99 554.334C823.44 558.765 816.444 560.158 810.312 560.238C796.031 560.424 782.283 553.675 769.646 547.755C756.63 541.657 743.97 534.889 731.614 527.549C725.321 523.811 719.096 519.949 712.951 515.974C709.935 514.022 706.941 512.038 703.969 510.022C702.267 508.867 700.654 507.601 698.921 506.576C699.77 505.786 700.149 504.543 699.438 503.457C704.447 499.108 706.532 491.348 706.776 485.068C706.973 480 706.227 474.945 705.638 469.925C705.341 467.393 704.975 464.865 704.594 462.345C704.443 461.349 704.328 460.284 704.152 459.233C717.679 466.667 731.585 473.288 745.86 479.169C753.176 482.185 760.587 484.895 768.1 487.379L769.622 487.88C776.741 490.211 784.03 492.412 791.389 493.744C791.782 493.816 792.102 493.235 791.681 493.049C784.51 489.885 777.09 487.215 769.811 484.301L768.614 483.814C768.752 483.806 768.894 483.787 769.043 483.751C773.312 482.721 777.548 481.133 781.735 479.796C785.621 478.555 789.987 477.776 793.619 475.902C793.898 475.758 793.742 475.37 793.47 475.351C789.387 475.068 784.956 476.258 780.953 476.958L779.449 477.222C776.93 477.666 774.355 478.143 771.849 478.766C771.758 477.926 771.289 477.083 770.621 476.588C763.276 471.148 764.022 460.161 763.237 452.059L762.654 446.043C761.629 435.516 760.545 424.99 758.899 414.541C758.811 413.983 757.948 414.143 757.944 414.67C757.859 427.622 758.837 440.515 759.327 453.447L759.403 455.568C759.674 463.548 759.886 471.834 764.911 477.974C764.208 477.563 763.258 477.563 762.689 478.24C761.99 479.073 761.586 480.007 761.598 480.925C757.057 479.021 752.536 477.067 748.038 475.074C733.573 468.665 719.412 461.493 705.625 453.733C704.142 452.898 702.731 453.554 701.998 454.655L701.892 454.64C701.874 454.638 701.856 454.636 701.838 454.636L701.733 454.631C701.729 454.631 701.725 454.632 701.721 454.632C699.78 453.565 697.136 454.325 695.471 455.88C695.422 455.927 695.38 455.977 695.336 456.027C693.228 455.08 691.259 453.803 689.473 452.183C685.816 448.869 682.72 444.771 680.02 440.662C675.048 433.094 670.825 424.678 664.109 418.448C658.652 413.387 651.887 410.236 644.79 408.257C644.82 408.05 644.741 407.829 644.597 407.682C644.233 407.309 643.973 407.179 643.502 407.406C643.464 407.424 643.442 407.45 643.426 407.477L642.734 406.293C642.356 405.651 641.968 405.004 641.833 404.834C641.027 403.82 640.198 402.813 639.356 401.827C637.929 400.158 636.302 398.511 634.419 397.353C630.295 394.82 625.959 396.254 621.72 397.638C619.158 398.475 616.604 399.339 614.047 400.189L613.783 400.275C611.877 400.888 609.645 401.424 608.792 403.444C608.455 404.244 608.403 405.074 608.56 405.879C590.449 401.273 570.333 403.389 552.66 408.796C551.981 409.003 551.304 409.561 551.161 410.294C549.136 420.68 548.234 431.331 549.15 441.894C549.941 451.012 551.961 459.947 555.768 468.294L555.984 468.766C559.561 476.502 565.231 486.038 573.891 488.463C579.119 489.927 584.902 489.063 590.235 488.795C595.418 488.534 600.715 488.496 605.849 487.681C610.421 486.956 614.427 484.906 617.252 481.188C619.69 477.981 620.973 474.104 622.025 470.248C622.506 470.401 622.984 470.564 623.455 470.749C625.441 471.524 627.124 472.776 628.646 474.25C631.859 477.362 634.351 481.142 637.713 484.111C640.756 486.799 644.224 488.89 647.943 490.497C655.651 493.828 663.919 495.159 672.072 496.924L672.641 497.048C678.779 498.395 685.043 500.049 690.461 503.244C690.567 504.185 690.995 505.07 691.682 505.65C690.727 506.548 690.322 507.969 691.162 509.302C693.507 513.025 697.547 515.143 701.174 517.523L701.41 517.679C704.978 520.044 708.577 522.363 712.205 524.634C719.58 529.253 727.11 533.617 734.747 537.789C747.029 544.499 759.575 550.829 772.348 556.571C771.581 560.343 771.861 564.233 771.285 568.03L771.197 568.572C770.95 569.981 771.283 571.16 772.253 572.081L772.356 572.175L772.354 572.162L772.445 572.246L772.476 572.271L772.466 572.263C772.578 572.366 772.693 572.461 772.811 572.543L772.961 572.639C773.895 573.207 775.099 573.201 776.056 572.699L776.166 572.639L776.349 572.534C777.614 571.806 778.486 570.004 777.962 568.572C776.672 565.052 776.185 561.296 774.994 557.753L775.939 558.176L777.184 558.718C790.65 564.542 805.608 569.446 820.28 565.476C826.763 563.721 832.823 560.01 836.066 553.96C839.258 548.008 839.709 541.096 839.879 534.474C840.088 526.302 839.65 518.004 838.572 509.902C837.849 504.463 836.974 498.922 835.625 493.539C836.319 492.927 836.829 492.048 836.964 490.96C837.601 485.819 836.486 480.475 835.804 475.361C835.137 470.367 834.401 465.384 833.568 460.416C831.886 450.382 829.932 440.37 827.658 430.455C823.609 412.807 818.264 395.474 811.827 378.554L811.264 377.081C805.317 361.616 798.431 346.481 788.842 332.895C784.255 326.395 779.407 320.502 772.925 315.819C766.854 311.43 760.005 308.27 752.937 305.855C745.861 303.438 738.589 301.819 731.187 300.811C723.671 299.788 715.737 299.161 708.726 296.077C709.613 294.487 708.851 292.34 707.359 291.354C702.335 288.035 697.69 283.717 693.187 279.727ZM532.374 424.066C532.163 423.747 531.663 423.949 531.756 424.327C534.199 434.338 536.493 444.369 537.99 454.57C540.694 472.983 540.197 491.637 539.976 510.186L539.964 511.145C539.851 521.137 539.693 531.129 539.363 541.116C539.196 546.164 538.866 551.261 539.045 556.311C539.143 559.051 539.873 561.642 540.132 564.349C540.359 566.716 540.157 569.119 540.044 571.489C539.968 573.065 542.294 572.998 542.452 571.489L542.654 569.538C542.917 567.068 543.242 564.614 544.051 562.25C545.024 559.407 545.491 556.615 545.828 553.63C546.346 549.056 546.576 544.437 546.775 539.831L546.912 536.645C547.745 517.396 547.716 498.057 546.367 478.828L546.268 477.454C544.932 459.278 542.614 439.64 532.374 424.066ZM584.455 309.51C585.093 309.247 584.869 308.282 584.162 308.45L582.877 308.757C573.46 311.013 564.214 313.457 555.424 317.655C546.628 321.855 539.182 328.125 533.265 335.836C521.763 350.824 516.983 369.038 513.21 387.236C509.017 407.457 505.199 427.752 500.969 447.967L500.183 451.732C496.269 470.56 492.574 489.398 489.851 508.449L489.656 509.831C486.91 529.421 485.258 549.69 488.254 569.331C488.847 573.217 495.313 572.249 495.06 568.41C494.33 557.311 493.807 546.271 494.312 535.147C494.818 524.021 495.861 512.944 497.417 501.915C498.726 492.634 500.677 483.469 502.404 474.262L502.674 472.807C504.12 464.976 505.611 457.153 507.098 449.329L509.321 437.615C512.652 420.075 516.048 402.519 519.886 385.09L520.113 384.064C523.869 367.295 529.406 349.73 540.671 336.414C552.103 322.9 568.469 316.094 584.455 309.51ZM625.994 487.375C625.72 486.762 624.758 486.829 624.462 487.375C623.304 489.512 623.175 492.241 622.956 494.654L622.933 494.903C622.654 497.847 622.408 500.802 622.257 503.756C621.971 509.363 621.834 514.963 621.851 520.577C621.869 526.33 621.985 532.077 622.295 537.822L622.379 539.361C622.662 544.353 623.137 549.922 625.509 554.286C626.371 555.873 628.716 555.407 629.216 553.802C630.852 548.548 630.012 542.319 629.592 536.938L629.266 532.739C628.944 528.54 628.636 524.339 628.392 520.135C628.057 514.383 627.782 508.626 627.516 502.871C627.43 501.002 627.337 499.132 627.238 497.263L627.087 494.46C626.957 492.115 626.968 489.542 625.994 487.375ZM809.949 494.821L809.224 494.121C807.001 491.945 804.191 488.594 800.905 488.802C799.594 488.885 798.759 489.973 799.031 491.262C799.611 494.019 802.423 495.45 804.447 497.133C806.665 498.976 808.755 500.946 810.84 502.935C812.691 504.699 814.47 506.513 816.207 508.384L816.857 509.088C817.479 509.767 821.913 513.778 821.434 514.818L821.408 514.865C821.274 515.064 821.496 515.338 821.718 515.268C823.632 514.663 823.513 513.022 822.789 511.359C821.398 508.165 818.963 505.209 816.836 502.481C814.715 499.759 812.419 497.224 809.949 494.821ZM619.057 414.699C620.537 411.199 625.991 411.272 629.088 411.482C636.885 412.009 645.321 413.981 652.259 417.626C659.451 421.405 664.296 427.459 668.632 434.154L668.834 434.469C673.06 441.037 677.129 448.813 683.745 453.33C687.115 455.631 691.05 457.732 695.139 458.642C695.42 459.135 695.875 459.526 696.471 459.668L696.748 459.732C697.913 459.989 699.722 460.273 701.285 460.103C701.274 460.868 701.282 461.626 701.263 462.351C701.208 464.426 701.185 466.511 701.185 468.588C701.184 472.94 701.418 477.301 701.236 481.652C701.075 485.501 700.532 489.523 698.684 492.963C697.328 495.487 695.54 497.158 693.38 498.753C688.068 495.515 682.062 493.542 675.965 492.058C668.593 490.263 661.044 489.066 653.839 486.633C650.371 485.461 647.037 483.928 644.017 481.846C640.811 479.635 638.362 476.644 635.843 473.718L635.449 473.263C632.878 470.314 630.072 467.492 626.438 465.893C623.309 464.516 619.185 464.271 616.449 462.14C615.018 461.024 614.898 459.406 614.748 457.749C616.5 458 618.355 457.598 620.102 457.394L621.006 457.287C622.658 457.091 624.271 456.876 625.897 456.455C626.199 456.377 626.199 455.922 625.897 455.844C623.976 455.348 622.072 455.136 620.102 454.906L619.639 454.848C617.857 454.614 615.983 454.261 614.235 454.654C613.921 453.46 613.469 452.32 612.833 451.179C611.941 449.576 610.253 447.758 610.025 445.885C609.957 445.326 610.087 444.666 610.351 444.172L610.442 444.003C610.553 443.804 610.684 443.604 610.876 443.48C610.897 443.505 610.942 443.533 611.04 443.564C612.385 443.987 613.559 443.329 614.182 442.314C616.826 442.642 619.712 442.532 622.192 442.641L624.699 442.762C627.378 442.885 630.179 442.939 632.696 442.398C633.048 442.322 633.154 441.737 632.802 441.587C629.707 440.263 625.953 439.841 622.639 439.332C620.789 439.048 618.925 438.831 617.069 438.581C615.833 438.414 614.521 438.139 613.241 438.073C610.031 434.076 611.76 427.771 616.228 426.05C617.856 426.765 619.319 426.349 621.097 426.196C622.872 426.044 624.651 425.941 626.433 425.948C630.004 425.964 633.789 426.904 637.325 426.499C637.9 426.433 638.434 425.668 637.862 425.201C635.156 422.992 631.276 422.271 627.84 421.8L627.128 421.705C625.976 421.554 624.575 421.334 623.122 421.202C622.794 420.562 622.204 420.077 621.318 419.957C621.055 419.921 620.791 419.899 620.527 419.877L620.531 419.851C618.371 419.747 618.465 416.099 619.057 414.699ZM766.919 482.954C766.957 483.012 766.999 483.069 767.043 483.122L767.112 483.202L766.757 483.058L766.919 482.954ZM581.368 406.879C590.459 405.902 599.562 406.108 608.68 406.37C609.409 408.755 611.948 410.788 614.407 410.865C612.481 413.797 612.282 417.766 613.633 420.875C610.765 422.017 608.294 424.068 606.794 426.989C604.714 431.038 604.987 435.544 607.042 439.286C605.288 440.874 604.252 443.454 604.356 445.885C604.472 448.596 606.088 450.912 607.43 453.157C608.881 455.585 608.93 457.722 609.376 460.441C610.028 464.42 612.711 466.834 616.164 468.341L615.981 469.063C615.09 472.529 613.983 476.185 611.439 478.719C608.166 481.979 603.088 481.949 598.764 482.155L598.555 482.166C594.595 482.363 590.637 482.596 586.679 482.82L583.71 482.986C579.153 483.237 574.776 483.267 571.055 480.253C564.981 475.335 560.817 467.195 558.181 459.989C552.65 444.863 552.583 428.264 555.123 412.512C563.639 409.766 572.475 407.834 581.368 406.879ZM656.969 431.973L656.902 431.977C655.03 432.191 653.744 433.707 653.286 435.505C652.621 438.118 652.947 440.481 651.347 442.84C649.7 445.266 648.688 447.209 648.449 450.206C648.351 451.439 648.396 452.669 648.121 453.876L647.922 454.722C647.711 455.624 647.538 456.492 647.643 457.461C647.739 458.344 648.169 459.031 649.055 459.315C651.94 460.238 654.169 458.111 654.914 455.421C655.558 453.098 654.698 450.33 655.607 448.148C656.11 446.939 657.039 445.927 657.563 444.71C658.083 443.503 658.344 442.242 658.427 440.931C658.586 438.45 656.392 435.469 657.616 433.221C657.876 432.741 657.581 431.958 656.969 431.973ZM695.302 406.371C693.348 405.974 691.131 405.064 689.204 405.82C688.213 406.209 687.724 407.417 688.561 408.257C690.014 409.714 692.126 409.795 694.083 410.139L694.255 410.17C696.57 410.598 698.888 411.004 701.21 411.389C705.577 412.112 709.955 412.752 714.349 413.296C718.861 413.854 723.386 414.351 727.918 414.725L729.672 414.869C733.5 415.176 737.483 415.406 741.238 414.82C741.784 414.735 741.696 413.94 741.238 413.801C737.124 412.556 732.611 412.222 728.357 411.695C723.834 411.133 719.32 410.541 714.817 409.838C710.321 409.135 705.831 408.382 701.358 407.549C699.336 407.173 697.317 406.78 695.302 406.371ZM624.787 402.372C626.502 401.765 628.389 400.865 630.247 401.166C633.452 401.685 636.304 404.808 638.84 406.864L637.567 406.617C631.05 405.364 622.42 404.014 616.949 408.158C616.935 408.134 616.925 408.11 616.909 408.087C616.467 407.416 615.955 406.893 615.397 406.319C615.344 406.268 615.292 406.216 615.241 406.164L614.94 405.843L615.629 405.604C617.105 405.082 618.854 404.408 619.13 404.31L619.149 404.303C621.031 403.666 622.915 403.036 624.787 402.372ZM678.332 265.761C678.6 262.312 673.232 262.34 672.966 265.761C672.386 273.23 674.066 280.628 677.684 287.176C677.71 287.224 677.74 287.267 677.768 287.312C675.505 288.489 673.217 289.619 670.878 290.628C667.885 291.92 664.837 293.097 661.734 294.094C658.927 294.998 655.469 295.354 653.109 297.234C648.132 301.197 650.002 309.421 650.959 314.752L651.109 315.594C651.585 318.337 651.93 321.152 650.774 323.784C649.539 326.597 647.041 328.683 644.813 330.695L644.364 331.103C642.39 332.901 640.135 335.086 638.687 337.524C637.366 334.791 635.564 332.558 633.659 330.044C632.301 328.251 633.268 327.659 634.244 325.907C635.184 324.22 635.643 322.422 635.349 320.498C634.806 316.944 631.967 314.377 629.14 312.448C625.801 310.171 622.075 308.485 618.624 306.367C611.533 302.015 604.627 297.04 598.405 291.514C598.233 291.361 597.936 291.561 598.073 291.77C602.988 299.247 608.751 305.707 615.834 311.191C618.706 313.415 621.723 315.259 624.76 317.198L625.633 317.758C626.853 318.548 628.374 319.604 628.925 320.949C629.48 322.302 628.297 323.323 627.66 324.444C625.638 328.002 626.614 331.323 629.011 334.34L629.123 334.479C631.505 337.416 633.311 340.146 634.174 343.897C636.03 351.955 633.445 360.349 630.74 367.914L630.633 368.212C629.17 372.289 627.614 376.337 626.343 380.48L625.993 381.625C624.841 385.437 623.898 389.197 625.19 393.115C625.629 394.448 627.447 394.763 628.202 393.509C630.865 389.085 631.529 383.762 633.198 378.898C634.825 374.158 636.694 369.504 638.265 364.744C640.289 358.616 641.643 352.02 640.908 345.592C640.93 345.555 640.954 345.52 640.972 345.48L641.487 344.353C642.892 341.302 644.248 338.637 646.803 336.204C649.467 333.667 652.36 331.421 654.456 328.35C659.01 321.678 656.194 314.256 655.644 306.962L655.581 306.067C655.481 304.552 655.426 302.494 656.415 301.446C657.528 300.266 660.138 299.965 661.614 299.442C665.43 298.092 669.19 296.518 672.772 294.629C676.181 292.83 679.483 290.843 682.558 288.516L684.116 287.343C686.575 285.488 689.125 283.461 690.773 280.936C690.963 280.645 690.64 280.176 690.295 280.315C687.544 281.432 685.031 283.207 682.457 284.753C682.417 284.658 682.37 284.563 682.317 284.468C679.133 278.704 677.823 272.317 678.332 265.761ZM590.452 305.254C589.356 302.248 584.36 302.48 584.56 306.052C584.712 308.796 585.877 311.272 586.942 313.764L587.056 314.031C588.156 316.627 589.426 319.064 590.946 321.443C593.849 325.991 597.251 330.212 600.884 334.195C604.178 337.806 608.501 340.015 613.483 339.648C615.582 339.493 617.7 338.959 619.54 337.911C621.724 336.665 624.097 332.924 626.884 333.83C627.153 333.917 627.405 333.523 627.172 333.335C623.954 330.744 620.302 334.762 617.222 335.73C612.58 337.189 607.816 335.576 604.829 331.823C601.709 327.905 598.838 323.518 596.217 319.251C594.885 317.085 593.671 314.837 592.621 312.519C591.563 310.18 591.322 307.639 590.452 305.254ZM597.934 286.754C598.07 286.339 597.554 285.944 597.189 286.181C595.075 287.558 593.243 289.376 591.293 290.971C589.129 292.739 586.949 294.472 584.736 296.178C581.509 298.666 585.252 303.246 588.092 300.528C591.979 296.811 596.236 291.95 597.934 286.754ZM609.542 272.204C608.683 268.891 603.603 270.257 604.344 273.531L604.368 273.631C605.77 279.038 603.773 284.544 599.51 288.049L599.353 288.177C596.656 290.335 600.477 294.109 603.147 291.971C608.977 287.305 611.402 279.378 609.542 272.204Z" fill="black"/>
<path fill-rule="evenodd" clip-rule="evenodd" d="M594.889 119.268C624.47 95.1728 671.872 87.3492 703.536 111.659C728.139 134.472 738.321 199.302 733.967 231.879C732.756 252.773 716.828 276.456 693.447 269.848C689.476 269.456 685.621 267.93 681.614 267.611C676.821 267.058 671.992 267.048 667.208 267.726C656.785 269.203 647.545 274.75 637.428 277.343C618.656 282.154 597.71 278.918 581.551 268.08C528.153 232.895 552.341 153.322 594.889 119.268Z" fill="white"/>
<path fill-rule="evenodd" clip-rule="evenodd" d="M598.829 277.922C598.28 277.732 597.731 277.534 597.187 277.332C597.151 277.458 597.093 277.579 597.025 277.697C596.948 277.886 596.872 278.07 596.787 278.255C597.47 278.26 598.154 278.138 598.829 277.922ZM599.925 44.424C600.168 43.879 600.448 43.3562 600.762 42.8509C599.998 43.0992 599.233 43.4418 598.54 43.8835C599.008 44.0413 599.467 44.2216 599.925 44.424ZM716.767 115.715C716.798 115.71 716.83 115.705 716.861 115.7C716.459 114.629 715.745 113.619 714.955 112.889C714.814 112.758 714.66 112.636 714.512 112.511C715.35 113.511 716.11 114.578 716.767 115.715ZM502.978 227.658C503.373 223.899 503.877 220.154 504.529 216.43C505.154 212.865 505.681 209.052 507.493 205.888C509.292 202.737 511.096 199.676 513.236 196.904C512.931 195.489 512.525 194.159 512.175 193.086C510.151 186.911 508.158 179.068 512.364 173.33C513.34 172 514.531 170.982 515.894 170.062C516.475 169.67 517.437 169.314 517.882 168.773C518.197 168.39 518.089 168.597 518.103 168.408C518.179 167.389 515.796 165.239 515.238 164.432C514.194 162.94 513.416 161.259 512.823 159.542C510.475 152.744 512.072 145.257 513.483 138.446C514.23 134.836 515.053 131.216 515.323 127.529C515.575 124.068 515.103 120.687 514.824 117.243C514.554 113.844 514.626 110.338 516.079 107.191C516.789 105.658 517.864 104.306 519.173 103.251C520.45 102.22 522.043 101.62 523.288 100.592C524.53 99.5688 524.174 98.1855 523.85 96.7701C523.405 94.8499 522.843 92.9432 522.789 90.9599C522.69 87.5027 524.098 84.1351 526.297 81.5212C528.564 78.8212 531.802 76.9953 535.301 76.5851C536.902 76.3958 538.477 76.7162 540.069 76.6035C541.643 76.4954 541.984 75.7066 542.281 74.2642C542.965 70.9602 542.686 67.6967 544.309 64.6136C545.749 61.873 548.308 60.0155 551.137 58.9206C556.322 56.9103 562.354 57.325 567.823 58.51C571.052 48.9906 581.131 42.7477 591.048 42.6711C592.595 40.0387 595.217 38.0734 598.208 36.9191C603.155 35.0034 608.395 36.1217 613.549 36.1217H613.571C614.089 36.0897 614.606 36.0766 615.123 36.0811C615.609 36.0536 616.095 36.0131 616.581 35.9594C622.446 35.2648 628.247 32.8578 634.058 35.2157C636.649 36.2659 638.709 37.8841 640.012 39.9486C641.978 40.4845 643.917 41.098 645.819 41.8101C654.063 42.0261 662.231 46.4569 666.399 53.6378C672.269 52.9707 678.637 54.1021 682.519 58.9071C683.53 60.1575 684.313 61.6265 684.832 63.1861C688.79 64.4689 692.452 66.7547 694.849 70.1975C697.036 73.3392 697.456 77.4014 695.977 80.7739C699.51 83.3391 702.271 87.0114 703.601 91.3476C704.409 93.9822 704.53 96.7043 704.01 99.2975C707.627 100.102 711.087 101.592 714.152 103.829C717.365 106.173 721.377 109.903 721.589 114.196C721.604 114.511 721.592 114.826 721.567 115.14C728.64 114.642 735.851 115.843 740.631 121.525C744.221 125.789 745.781 131.28 744.823 136.278C753.238 137.991 761.194 142.4 766.744 148.917C770.778 153.655 774.363 159.677 774.147 166.127C774.08 168.07 773.625 170.026 772.838 171.834V171.838C773.175 172.474 773.522 173.181 773.855 173.934C779.068 177.589 782.855 183.319 784.986 189.634C786.709 194.749 787.792 201.394 785.953 206.6C785.674 207.393 785.319 208.141 784.905 208.835C785.252 209.205 785.58 209.575 785.899 209.949C789.412 214.064 792.97 219.247 792.726 224.913C792.627 227.195 791.782 229.489 790.401 231.373C795.259 236.309 799.171 242.538 798.785 249.493C798.452 255.547 795.137 261.695 789.943 264.602C790.81 269.268 789.65 274.19 786.025 277.832C784.217 279.653 782.085 280.852 779.827 281.492C779.324 286.987 774.458 291.409 769.29 292.679C768.327 292.919 767.365 293.063 766.407 293.13C761.757 295.416 756.211 295.154 751.466 293.058C750.068 294.839 748.246 296.29 746.123 297.331C745.264 297.755 744.355 298.107 743.407 298.39C736.705 300.378 729.833 297.683 723.973 294.537C723.784 294.438 723.438 294.311 723.132 294.172C722.322 295.078 720.847 295.975 720.078 296.416C717.469 297.917 714.28 298.616 711.285 298.418C707.772 298.183 704.674 297.02 701.805 295.366C701.386 295.438 700.963 295.479 700.54 295.501C697.842 295.645 695.436 294.789 693.272 293.437C691.842 293.626 690.376 293.608 688.892 293.347C685.622 294.18 682.438 292.855 679.879 290.75C678.745 289.817 677.788 288.722 676.762 287.676C675.696 286.59 674.886 286.338 673.641 285.607C670.695 283.881 670.34 279.504 671.617 276.339C671.374 275.786 671.234 275.168 671.234 274.483C671.244 268.506 673.991 263.025 677.364 258.242C678.872 256.11 680.508 254.023 682.303 252.13C683.747 250.611 685.775 248.146 687.911 247.528C688.042 247.433 688.177 247.338 688.312 247.249C687.898 245.797 687.655 244.319 687.758 242.809C687.867 241.258 688.366 239.788 689.166 238.536C686.481 233.32 685.348 227.6 685.887 221.632C683.702 218.526 682.046 215.097 681.192 211.337C680.666 209.011 680.364 206.564 680.405 204.179C680.423 203.034 680.842 201.587 680.85 200.402C680.787 200.776 680.301 199.379 680.112 199.031C677.945 194.998 675.161 191.851 674.697 187.096C674.428 184.314 675.085 181.241 676.749 178.96C675.683 174.75 675.696 170.228 677.374 166.213C677.824 165.14 678.34 164.09 678.934 163.093C678.66 162.255 678.408 161.408 678.085 160.645C677.958 160.343 677.833 160.037 677.707 159.731C676.488 158.653 675.354 157.477 674.401 156.323C672.287 153.767 670.672 150.838 670.47 147.461C670.371 145.771 670.767 144.153 671.257 142.548C671.473 141.823 671.604 141.016 671.86 140.308C672.003 139.915 672.35 139.515 672.471 139.145C672.499 139.064 672.521 138.996 672.539 138.942C672.521 138.888 672.507 138.776 672.507 138.563C672.503 136.945 672.292 135.363 672.282 133.804C670.803 135.3 669.022 136.418 666.998 137.072C662.919 138.383 658.664 137.788 655.053 135.765C651.166 138.433 646.8 140.849 642.221 141.818C639.5 142.395 636.774 142.156 634.045 142.512C631.333 142.868 628.71 144.054 626.156 144.978C620.471 147.038 614.8 149.151 609.097 151.158C604.491 152.776 599.508 154.06 594.686 153.15C593.333 155.241 591.574 157.008 589.321 158.307C587.707 159.231 585.935 159.857 584.104 160.168C582.485 160.443 580.587 160.335 579.274 161.448C577.992 162.53 577.191 164.143 576.04 165.361C574.758 166.722 573.175 167.903 571.515 168.75C570.184 169.431 568.825 169.922 567.445 170.242C567.566 173.321 567.684 176.395 567.72 179.478C567.787 186.176 567.76 192.874 567.85 199.573C567.939 206.248 568.151 212.924 568.502 219.59C568.835 225.847 569.303 232.125 570.791 238.229C575.73 258.481 594.228 272.982 614.935 273.721C621.082 273.942 627.168 273.077 633.046 271.264C639.135 269.385 644.573 265.517 650.816 264.327C652.449 264.02 653.987 265.666 653.051 267.248C651.441 269.966 649.485 271.625 646.809 273.261C644.006 274.97 640.885 276.236 637.805 277.345C632.138 279.382 626.142 280.563 620.129 280.893C615.542 281.145 610.936 280.829 606.443 279.964C606.128 280.933 605.57 281.875 605.148 282.772C605.085 282.903 604.873 282.813 604.914 282.678C604.982 282.452 605.026 282.254 605.044 282.092C603.533 284.066 601.199 285.431 598.802 286.094C597.111 286.563 595.316 286.707 593.575 286.509C593.013 286.445 592.478 286.351 591.947 286.234C590.176 287.789 587.909 288.826 585.633 289.344C586.024 291.724 584.851 294.32 582.129 294.997C580.987 295.28 579.89 295.285 578.792 295.181C577.906 295.596 576.953 295.921 575.941 296.141C574.623 296.43 573.049 296.06 572.055 295.105C571.511 295.488 571.003 295.754 570.499 296.362C568.425 298.868 563.955 296.872 563.757 293.973C563.101 293.973 562.439 293.982 561.778 294.005C561.621 294.077 561.463 294.149 561.302 294.226C558.41 295.573 555.414 296.75 552.216 295.691C551.627 295.496 551.088 295.249 550.597 294.96C548.344 295.163 546.122 295.168 543.837 294.429C542.488 293.991 541.22 293.297 540.163 292.387C536.637 293.423 532.917 293.892 529.409 292.607C526.783 291.647 524.669 290.133 523.18 288.136C520.904 288.217 518.593 287.667 516.511 286.581C512.949 284.733 510.452 281.221 508.712 277.701C504.88 269.935 502.613 261.591 501.723 252.987C500.846 244.512 502.096 236.083 502.978 227.658Z" fill="black"/>
<path fill-rule="evenodd" clip-rule="evenodd" d="M620.82 225.453C618.299 221.305 612.924 231.466 612.353 233.213C611.848 234.761 611.514 236.346 611.344 237.95C609.39 238.388 607.36 238.389 605.357 238.005C602.38 237.434 600.56 235.834 597.973 234.459C596.186 233.51 593.934 234.623 593.005 236.198C591.912 238.052 592.608 239.976 594.046 241.358C596.772 243.978 602.136 244.581 605.695 243.885C607.734 243.486 609.603 242.721 611.253 241.61C611.264 241.817 611.271 242.025 611.288 242.232L611.319 242.591C611.593 245.497 612.391 249.152 614.649 251.043C618.351 254.146 622.92 248.179 619.323 245.081L619.211 244.988C616.975 243.181 616.487 238.333 616.608 235.663C616.687 233.92 617.004 232.155 617.554 230.495L617.667 230.165C617.833 229.696 619.639 225.248 620.291 225.814L620.323 225.846C620.592 226.168 621.026 225.793 620.82 225.453ZM600.689 202.048C597.286 204.117 592.1 208.941 595.761 214.071C600.071 218.593 606.276 213.408 609.334 211.063C612.169 209.245 615.355 213.92 612.724 216.042C590.629 232.402 581.662 202.589 598.968 199.615C600.873 199.288 601.581 201.408 600.689 202.048ZM637.032 182.924C633.706 182.334 630.298 183.161 627.546 185.108L627.337 185.258C624.686 187.197 621.719 190.603 623.24 193.946C623.851 195.288 625.68 195.499 626.841 194.89C628.773 193.877 629.123 191.384 630.847 190.004C632.261 188.873 634.165 188.187 635.985 188.353C640.263 188.741 642.894 192.961 644.223 196.597C644.393 197.062 645.076 197.243 645.342 196.743C648.475 190.887 642.93 183.971 637.032 182.924ZM583.754 180.714C577.382 180.189 569.925 186.795 571.602 193.521C572.407 196.749 577.194 196.656 578.045 193.521C578.513 191.796 578.466 190.27 579.708 188.838C580.733 187.655 582.189 186.968 583.754 187.073C585.479 187.19 587.071 188.052 588.28 189.264C589.372 190.358 590.025 191.96 591.156 192.929C591.435 193.167 591.808 193.182 592.083 192.929C594.03 191.133 592.861 187.396 591.626 185.521C589.86 182.839 586.983 180.981 583.754 180.714ZM649.165 170.995C645.078 167.376 637.651 163.882 632.139 165.663C628.97 166.686 627.589 171.793 631.126 173.411C635.223 175.286 639.946 174.523 644.115 176.466C645.866 177.282 647.513 178.302 648.732 179.798C649.693 180.977 650.67 182.529 652.059 183.208C652.424 183.387 652.918 183.392 653.211 183.06C656.256 179.616 651.824 173.348 649.165 170.995ZM590.779 165.483C588.253 164.774 585.451 164.788 582.884 165.234C580.319 165.679 577.714 166.742 575.62 168.293L575.377 168.475C573.09 170.198 570.362 172.705 570.508 175.758C570.63 178.307 573.311 180.031 575.626 178.695C577.513 177.605 578.401 175.423 579.999 173.97C581.317 172.77 582.866 171.825 584.518 171.162C586.353 170.426 588.192 170.081 590.161 170.048C591.678 170.023 593.204 170.521 594.692 170.68C594.569 170.931 595.746 170.814 596.42 170.591C596.919 170.378 596.922 169.747 596.749 169.337C595.89 167.307 592.766 166.04 590.779 165.483Z" fill="black"/>
<rect x="244.028" y="385.789" width="103.211" height="127.112" fill="#6172CC"/>
<path fill-rule="evenodd" clip-rule="evenodd" d="M213.924 261.46C225.05 252.987 252.981 249.177 264.856 257.335C276.584 265.527 277.862 278.776 283.328 290.963C288.484 288.531 297 292.014 298.495 296.799C300.349 299.056 300.432 305.397 301.711 308.431C357.347 317.288 365.793 360.667 372.49 409.915C381.349 459.889 401.46 509.755 392.729 561.179C393.867 562.825 394.763 564.425 395.593 566.326C397.58 569.707 395.02 574.494 391.012 574.308C385.824 573.853 380.688 573.231 375.475 573.036C361.026 572.534 346.563 572.594 332.108 572.778L330.137 572.804C257.288 573.711 184.444 575.498 111.592 575.972C108.949 575.976 107.655 573.605 108.008 571.267C108.719 566.559 109.378 561.848 110.066 557.138C92.8349 561.69 74.5165 562.835 57.3338 557.617C56.1318 556.392 60.1345 557.056 60.7695 556.87C44.9561 546.063 49.6786 523.297 51.0794 506.9C59.7897 450.713 62.8604 388.547 96.514 340.602C111.073 321.035 132.418 305.544 156.945 302.058L157.625 301.965C164.797 301.009 172.79 300.701 179.06 296.799C186.112 291.169 189.118 280.765 196.537 280.668C198.987 280.635 202.319 283.735 205.906 285.839C206.173 281.21 208.668 277.303 209.219 273.714L209.264 273.407C209.838 269.222 209.051 265.457 213.924 261.46ZM333.491 411.4C317.856 400.537 277.467 405.995 276.542 406.603C274.506 407.942 273.63 408.061 272.528 409.8C271.441 409.944 270.355 410.094 269.27 410.248C267.092 410.959 268.706 413.637 271.221 412.682C269.708 419.206 274.16 423.846 275.932 430.296C276.508 432.39 275.953 436.157 275.932 438.297C276.104 441.025 279.12 444.248 278.618 446.985C276.83 456.716 267.132 466.209 271.221 475.646C273.93 480.976 282.077 483.694 287.493 485.506C298.715 489.814 318.269 485.344 324.789 475.646C328.267 470.474 332.296 457.425 334.37 453.378L334.829 446.958C335.963 430.998 336.971 413.818 333.491 411.4Z" fill="#FAFAFA"/>
<path fill-rule="evenodd" clip-rule="evenodd" d="M195.958 280.697L200.433 283.443L226.42 296.29C231.458 297.701 233.977 299.391 233.977 301.362V321.429C233.977 324.115 238.704 330.201 248.16 339.687L256.895 330.978L256.7 329.838C255.868 324.925 255.453 321.638 255.453 319.978C255.453 318.193 263.999 311.415 281.091 299.646L288.569 292.606L287.771 290.181C292.382 290.399 297.382 293.238 298.495 296.799C300.349 299.056 300.432 305.397 301.711 308.431C357.347 317.288 365.793 360.667 372.49 409.915C381.349 459.889 401.46 509.755 392.729 561.179C393.867 562.825 394.763 564.425 395.593 566.326C397.58 569.707 395.02 574.494 391.012 574.308C385.824 573.853 380.688 573.231 375.475 573.036C361.026 572.534 346.563 572.594 332.108 572.778L330.137 572.804C257.288 573.711 184.444 575.498 111.592 575.972C108.949 575.976 107.655 573.605 108.008 571.267C108.719 566.559 109.378 561.848 110.066 557.138C92.8349 561.69 74.5165 562.835 57.3338 557.617C56.1318 556.392 60.1345 557.056 60.7695 556.87C44.9561 546.063 49.6786 523.297 51.0794 506.9C59.7897 450.713 62.8604 388.547 96.514 340.602C111.073 321.035 132.418 305.544 156.945 302.058L157.625 301.965L158.311 301.876C165.303 300.986 172.989 300.577 179.06 296.799C185.926 291.317 188.956 281.311 195.958 280.697ZM258.226 398.48C255.677 398.48 250.457 402.439 242.566 410.356L241.871 410.677C232.332 415.108 226.013 418.952 222.913 422.209L222.802 422.326C219.671 425.686 213.47 434.62 204.199 449.128L190.774 457.068H185.695L182.078 483.303L190.774 502.036L210.472 495.4L242.566 486.94L260.983 468.254L271.372 464.766C270.111 468.408 269.654 472.031 271.221 475.646C273.93 480.977 282.076 483.694 287.493 485.506C298.715 489.814 318.269 485.344 324.789 475.646C328.267 470.474 332.296 457.426 334.37 453.378L334.964 445.038C336.036 429.647 336.832 413.721 333.491 411.4C317.855 400.537 277.466 405.995 276.542 406.603C274.506 407.942 273.629 408.061 272.528 409.8L271.958 409.876L275.164 405.529L274.029 404.923C265.93 400.628 260.663 398.48 258.226 398.48ZM271.221 412.682C269.773 418.928 273.791 423.447 275.691 429.481L270.836 420.184L270.836 412.802C270.961 412.772 271.09 412.732 271.221 412.682Z" fill="white"/>
<path fill-rule="evenodd" clip-rule="evenodd" d="M193.813 279.727C194.892 278.77 196.489 279.972 195.804 281.263C194.262 284.165 192.681 286.916 190.612 289.481C189.358 291.037 188.014 292.508 186.653 293.963C190.147 296.986 193.144 300.74 195.974 304.257C199.593 308.756 203.014 313.446 207.076 317.562C211.082 321.622 215.512 324.461 220.868 326.353L221.95 326.729C227.33 328.618 233.081 331.169 236.114 336.264C236.712 337.269 235.508 338.51 234.496 337.883C229.225 334.62 223.033 333.963 217.297 331.807C211.755 329.724 206.925 326.518 202.656 322.427C198.396 318.342 194.818 313.695 191.086 309.146C187.396 304.648 183.422 300.806 179.057 297.001C172.321 301.533 164.632 303.505 156.814 305.441L155.96 305.653C148.133 307.591 140.347 309.842 133.003 313.217C126.528 316.193 120.16 319.746 114.885 324.588C109.287 329.726 104.929 336.289 100.941 342.708C92.0199 357.067 85.7479 372.798 80.2263 388.72C74.4834 405.282 69.6798 422.175 65.8019 439.269C63.8297 447.964 62.2279 456.72 60.9113 465.538C60.2777 469.785 59.7147 474.041 59.2203 478.307C58.6925 482.862 58.5713 487.548 57.1741 491.927C56.5751 493.804 55.1608 494.583 53.7451 494.517L53.4576 498.113C53.0763 502.908 52.7209 507.705 52.6008 512.529C52.4016 520.552 52.4919 528.551 53.069 536.557L53.1507 537.648C53.6041 543.491 54.6173 550.056 59.0103 554.334C63.5597 558.765 70.556 560.158 76.6878 560.238C90.9693 560.424 104.717 553.675 117.354 547.755C130.37 541.657 143.03 534.889 155.386 527.549C161.679 523.811 167.904 519.949 174.049 515.974C177.065 514.022 180.059 512.038 183.031 510.022C184.733 508.867 186.346 507.601 188.079 506.576C187.23 505.786 186.851 504.543 187.562 503.457C182.553 499.108 180.468 491.348 180.224 485.068C180.027 480 180.773 474.945 181.362 469.925C181.659 467.393 182.025 464.865 182.406 462.345C182.557 461.349 182.672 460.284 182.848 459.233C169.321 466.667 155.415 473.288 141.14 479.169C133.824 482.185 126.413 484.895 118.9 487.379L117.378 487.88C110.259 490.211 102.97 492.412 95.6115 493.744C95.218 493.816 94.8985 493.235 95.3186 493.049C102.49 489.885 109.91 487.215 117.189 484.301L118.386 483.814V483.814C118.248 483.806 118.106 483.787 117.957 483.751C113.688 482.721 109.452 481.133 105.265 479.796C101.379 478.555 97.0132 477.776 93.381 475.902C93.1015 475.758 93.2579 475.37 93.5302 475.351C97.6126 475.068 102.044 476.258 106.047 476.958L107.551 477.222C110.07 477.666 112.645 478.143 115.151 478.766C115.242 477.926 115.711 477.083 116.379 476.588C123.724 471.148 122.978 460.161 123.763 452.059L124.346 446.043C125.371 435.516 126.455 424.99 128.101 414.541C128.189 413.983 129.052 414.143 129.056 414.67C129.141 427.622 128.163 440.515 127.673 453.447L127.597 455.568C127.327 463.548 127.114 471.834 122.089 477.974C122.792 477.563 123.742 477.563 124.311 478.24C125.011 479.073 125.414 480.007 125.402 480.925C129.943 479.021 134.464 477.067 138.963 475.074C153.427 468.665 167.588 461.493 181.375 453.733C182.858 452.898 184.269 453.554 185.002 454.655L185.108 454.64C185.126 454.638 185.144 454.636 185.162 454.636L185.267 454.631C185.271 454.631 185.276 454.632 185.279 454.632C187.22 453.565 189.864 454.325 191.529 455.88C191.578 455.927 191.62 455.977 191.664 456.027C193.772 455.08 195.741 453.803 197.527 452.183C201.184 448.869 204.28 444.771 206.98 440.662C211.952 433.094 216.175 424.678 222.891 418.448C228.348 413.387 235.113 410.236 242.21 408.257C242.18 408.05 242.259 407.829 242.403 407.682C242.767 407.309 243.027 407.179 243.498 407.406C243.536 407.424 243.558 407.45 243.574 407.477L244.266 406.293C244.644 405.651 245.032 405.004 245.167 404.834C245.973 403.82 246.802 402.813 247.644 401.827C249.071 400.158 250.698 398.511 252.581 397.353C256.705 394.82 261.041 396.254 265.28 397.638C267.842 398.475 270.396 399.339 272.953 400.189L273.217 400.275C275.123 400.888 277.355 401.424 278.208 403.444C278.545 404.244 278.597 405.074 278.44 405.879C296.551 401.273 316.667 403.389 334.341 408.796C335.019 409.003 335.696 409.561 335.839 410.294C337.864 420.68 338.766 431.331 337.85 441.894C337.059 451.012 335.039 459.947 331.232 468.294L331.016 468.766C327.439 476.502 321.769 486.038 313.109 488.463C307.881 489.927 302.098 489.063 296.765 488.795C291.582 488.534 286.285 488.496 281.151 487.681C276.579 486.956 272.573 484.906 269.748 481.188C267.31 477.981 266.027 474.104 264.975 470.248C264.494 470.401 264.016 470.564 263.545 470.749C261.559 471.524 259.876 472.776 258.355 474.25C255.141 477.362 252.649 481.142 249.287 484.111C246.244 486.799 242.776 488.89 239.057 490.497C231.349 493.828 223.081 495.159 214.928 496.924L214.359 497.048C208.221 498.395 201.957 500.049 196.539 503.244C196.433 504.185 196.005 505.07 195.318 505.65C196.273 506.548 196.678 507.969 195.838 509.302C193.493 513.025 189.453 515.143 185.826 517.523L185.59 517.679C182.022 520.044 178.423 522.363 174.795 524.634C167.42 529.253 159.89 533.617 152.253 537.789C139.971 544.499 127.425 550.829 114.652 556.571C115.419 560.343 115.139 564.233 115.715 568.03L115.804 568.572C116.05 569.981 115.717 571.16 114.747 572.081L114.644 572.175L114.646 572.162L114.555 572.246L114.524 572.271L114.534 572.263C114.422 572.366 114.307 572.461 114.189 572.543L114.039 572.639V572.639C113.105 573.207 111.901 573.201 110.944 572.699L110.835 572.639L110.651 572.534C109.386 571.806 108.514 570.004 109.038 568.572C110.328 565.052 110.815 561.296 112.006 557.753L111.061 558.176V558.176L109.816 558.718C96.35 564.542 81.3919 569.446 66.7196 565.476C60.2366 563.721 54.1774 560.01 50.9337 553.96C47.7418 548.008 47.2906 541.096 47.1211 534.474C46.912 526.302 47.3501 518.004 48.4277 509.902C49.1511 504.463 50.0259 498.922 51.3753 493.539C50.6813 492.927 50.1711 492.048 50.0363 490.96C49.3995 485.819 50.514 480.475 51.1964 475.361C51.863 470.367 52.5995 465.384 53.4324 460.416C55.1139 450.382 57.0677 440.37 59.3424 430.455C63.3907 412.807 68.7365 395.474 75.1725 378.554L75.7362 377.081C81.6834 361.616 88.5694 346.481 98.158 332.895C102.745 326.395 107.593 320.502 114.075 315.819C120.146 311.43 126.995 308.27 134.063 305.855C141.139 303.438 148.412 301.819 155.813 300.811C163.329 299.788 171.263 299.161 178.274 296.077C177.387 294.487 178.149 292.34 179.641 291.354C184.665 288.035 189.31 283.717 193.813 279.727ZM354.626 424.066C354.837 423.747 355.337 423.949 355.244 424.327C352.801 434.338 350.507 444.369 349.01 454.57C346.306 472.983 346.803 491.637 347.024 510.186L347.036 511.145C347.149 521.137 347.307 531.129 347.637 541.116C347.804 546.164 348.134 551.261 347.955 556.311C347.857 559.051 347.127 561.642 346.868 564.349C346.641 566.716 346.843 569.119 346.956 571.489C347.032 573.065 344.706 572.998 344.548 571.489L344.346 569.538C344.083 567.068 343.758 564.614 342.949 562.25C341.976 559.407 341.509 556.615 341.172 553.63C340.654 549.056 340.425 544.437 340.225 539.831L340.088 536.645C339.255 517.396 339.284 498.057 340.633 478.828L340.732 477.454C342.068 459.278 344.386 439.64 354.626 424.066ZM302.545 309.51C301.907 309.247 302.131 308.282 302.838 308.45L304.123 308.757C313.54 311.013 322.786 313.457 331.576 317.655C340.372 321.855 347.818 328.125 353.735 335.836C365.237 350.824 370.017 369.038 373.79 387.236C377.983 407.457 381.801 427.752 386.031 447.967L386.817 451.732C390.731 470.56 394.426 489.398 397.149 508.449L397.344 509.831C400.09 529.421 401.742 549.69 398.746 569.331C398.153 573.217 391.687 572.249 391.94 568.41C392.67 557.311 393.193 546.271 392.688 535.147C392.182 524.021 391.139 512.944 389.583 501.915C388.274 492.634 386.323 483.469 384.596 474.262L384.326 472.807C382.88 464.976 381.389 457.153 379.902 449.329L377.679 437.615C374.348 420.075 370.952 402.519 367.114 385.09L366.887 384.064C363.131 367.295 357.594 349.73 346.329 336.414C334.897 322.9 318.531 316.094 302.545 309.51ZM261.006 487.375C261.28 486.762 262.242 486.829 262.538 487.375C263.696 489.512 263.825 492.241 264.044 494.654L264.067 494.903C264.346 497.847 264.592 500.802 264.743 503.756C265.029 509.363 265.166 514.963 265.149 520.577C265.131 526.33 265.015 532.077 264.705 537.822L264.621 539.361C264.338 544.353 263.863 549.922 261.491 554.286C260.629 555.873 258.284 555.407 257.784 553.802C256.148 548.548 256.988 542.319 257.408 536.938L257.734 532.739C258.057 528.54 258.364 524.339 258.608 520.135C258.943 514.383 259.218 508.626 259.484 502.871C259.57 501.002 259.663 499.132 259.762 497.263L259.913 494.46C260.043 492.115 260.032 489.542 261.006 487.375ZM77.0515 494.821L77.7757 494.121C79.9991 491.945 82.8087 488.594 86.0954 488.802C87.4061 488.885 88.2412 489.973 87.9695 491.262C87.389 494.019 84.577 495.45 82.5529 497.133C80.3354 498.976 78.2455 500.946 76.1597 502.935C74.3092 504.699 72.5295 506.513 70.7926 508.384L70.1432 509.088C69.5206 509.767 65.087 513.778 65.5663 514.818L65.5924 514.865C65.7259 515.064 65.5037 515.338 65.2824 515.268C63.3678 514.663 63.4872 513.022 64.211 511.359C65.6019 508.165 68.0375 505.209 70.1644 502.481C72.2855 499.759 74.5813 497.224 77.0515 494.821V494.821ZM267.943 414.699C266.463 411.199 261.009 411.272 257.912 411.482C250.115 412.009 241.679 413.981 234.741 417.626C227.549 421.405 222.704 427.459 218.368 434.154L218.166 434.469C213.94 441.037 209.871 448.813 203.255 453.33C199.885 455.631 195.95 457.732 191.861 458.642C191.58 459.135 191.125 459.526 190.529 459.668L190.252 459.732C189.087 459.989 187.278 460.273 185.715 460.103C185.726 460.868 185.718 461.626 185.737 462.351C185.792 464.426 185.815 466.511 185.815 468.588C185.816 472.94 185.582 477.301 185.764 481.652C185.925 485.501 186.469 489.523 188.316 492.963C189.672 495.487 191.461 497.158 193.62 498.753C198.932 495.515 204.938 493.542 211.035 492.058C218.407 490.263 225.956 489.066 233.161 486.633C236.629 485.461 239.963 483.928 242.983 481.846C246.189 479.635 248.638 476.644 251.157 473.718L251.551 473.263C254.122 470.314 256.928 467.492 260.562 465.893C263.691 464.516 267.815 464.271 270.551 462.14C271.982 461.024 272.102 459.406 272.252 457.749C270.5 458 268.645 457.598 266.898 457.394L265.994 457.287C264.342 457.091 262.729 456.876 261.103 456.455C260.801 456.377 260.801 455.922 261.103 455.844C263.024 455.348 264.928 455.136 266.898 454.906L267.361 454.848C269.143 454.614 271.017 454.261 272.765 454.654C273.079 453.46 273.531 452.32 274.167 451.179C275.059 449.576 276.747 447.758 276.975 445.885C277.043 445.326 276.913 444.666 276.649 444.172L276.558 444.003C276.447 443.804 276.316 443.604 276.124 443.48C276.103 443.505 276.058 443.533 275.96 443.564C274.615 443.987 273.441 443.329 272.818 442.314C270.174 442.642 267.288 442.532 264.808 442.641L262.301 442.762C259.622 442.885 256.821 442.939 254.304 442.398C253.952 442.322 253.846 441.737 254.198 441.587C257.293 440.263 261.047 439.841 264.361 439.332C266.211 439.048 268.075 438.831 269.931 438.581C271.167 438.414 272.479 438.139 273.759 438.073C276.969 434.076 275.24 427.771 270.772 426.05C269.144 426.765 267.681 426.349 265.903 426.196C264.128 426.044 262.349 425.941 260.567 425.948C256.996 425.964 253.211 426.904 249.675 426.499C249.1 426.433 248.566 425.668 249.138 425.201C251.844 422.992 255.724 422.271 259.16 421.8L259.872 421.705C261.024 421.554 262.425 421.334 263.878 421.203C264.206 420.562 264.796 420.077 265.682 419.957C265.945 419.921 266.209 419.899 266.473 419.877L266.469 419.851V419.851C268.629 419.747 268.535 416.099 267.943 414.699ZM120.081 482.954C120.043 483.012 120.001 483.069 119.957 483.122L119.888 483.202L120.243 483.058L120.081 482.954V482.954ZM305.632 406.879C296.541 405.902 287.438 406.108 278.32 406.37C277.591 408.755 275.052 410.788 272.593 410.865C274.519 413.797 274.718 417.766 273.367 420.875C276.235 422.017 278.706 424.068 280.206 426.989C282.286 431.038 282.013 435.544 279.958 439.286C281.712 440.874 282.748 443.454 282.644 445.885C282.528 448.596 280.912 450.912 279.57 453.157C278.119 455.585 278.07 457.722 277.624 460.441C276.972 464.42 274.289 466.834 270.836 468.341L271.019 469.063C271.91 472.529 273.017 476.185 275.562 478.719C278.834 481.979 283.912 481.949 288.236 482.155L288.445 482.166C292.405 482.363 296.363 482.596 300.321 482.82L303.29 482.986C307.847 483.237 312.224 483.267 315.945 480.253C322.019 475.335 326.183 467.195 328.819 459.989C334.351 444.863 334.417 428.264 331.877 412.512C323.361 409.766 314.525 407.834 305.632 406.879ZM230.031 431.973L230.098 431.977C231.97 432.191 233.256 433.707 233.714 435.505C234.379 438.118 234.053 440.481 235.653 442.841C237.3 445.266 238.312 447.209 238.551 450.206C238.649 451.439 238.604 452.669 238.879 453.876L239.078 454.722C239.289 455.624 239.462 456.492 239.357 457.461C239.261 458.344 238.831 459.031 237.945 459.315C235.06 460.238 232.831 458.111 232.086 455.421C231.442 453.098 232.302 450.33 231.393 448.148C230.89 446.939 229.961 445.927 229.437 444.71C228.917 443.503 228.656 442.242 228.573 440.931C228.414 438.45 230.608 435.469 229.384 433.221C229.124 432.741 229.419 431.958 230.031 431.973ZM191.698 406.371C193.652 405.974 195.869 405.064 197.796 405.82C198.787 406.209 199.276 407.417 198.439 408.257C196.986 409.714 194.874 409.795 192.917 410.139L192.745 410.17C190.43 410.598 188.112 411.004 185.79 411.389C181.423 412.112 177.045 412.752 172.651 413.296C168.139 413.854 163.614 414.351 159.082 414.725L157.328 414.869C153.5 415.176 149.517 415.407 145.762 414.82C145.216 414.735 145.304 413.94 145.762 413.801C149.876 412.556 154.389 412.222 158.643 411.695C163.166 411.133 167.68 410.541 172.183 409.838C176.679 409.135 181.169 408.382 185.642 407.549C187.664 407.173 189.683 406.78 191.698 406.371ZM262.213 402.372C260.498 401.765 258.611 400.865 256.753 401.166C253.548 401.685 250.696 404.808 248.16 406.864L249.433 406.617C255.95 405.364 264.58 404.014 270.051 408.158C270.065 408.134 270.076 408.11 270.091 408.087C270.533 407.416 271.045 406.893 271.603 406.319C271.656 406.268 271.708 406.216 271.759 406.164L272.06 405.843L271.371 405.604C269.895 405.082 268.146 404.408 267.87 404.31L267.851 404.303C265.969 403.666 264.085 403.036 262.213 402.372ZM208.668 265.761C208.4 262.312 213.768 262.34 214.034 265.761C214.614 273.23 212.934 280.628 209.316 287.176C209.29 287.224 209.26 287.267 209.232 287.312C211.495 288.489 213.783 289.619 216.122 290.628C219.115 291.92 222.163 293.097 225.266 294.094C228.073 294.998 231.531 295.354 233.891 297.234C238.868 301.197 236.998 309.421 236.041 314.752L235.891 315.594C235.415 318.337 235.07 321.152 236.226 323.784C237.461 326.597 239.959 328.683 242.187 330.695L242.637 331.103C244.61 332.901 246.865 335.086 248.313 337.524C249.634 334.791 251.436 332.558 253.341 330.044C254.699 328.251 253.732 327.659 252.756 325.907C251.816 324.22 251.357 322.422 251.651 320.498C252.194 316.944 255.033 314.377 257.86 312.448C261.199 310.171 264.925 308.485 268.376 306.367C275.467 302.015 282.373 297.04 288.595 291.514C288.767 291.361 289.064 291.561 288.927 291.77C284.012 299.247 278.249 305.707 271.166 311.191C268.294 313.415 265.277 315.259 262.24 317.198L261.367 317.758C260.147 318.548 258.626 319.604 258.075 320.949C257.52 322.302 258.703 323.323 259.34 324.444C261.362 328.002 260.387 331.323 257.989 334.34L257.877 334.479C255.495 337.416 253.689 340.146 252.826 343.897C250.97 351.955 253.555 360.349 256.26 367.914L256.367 368.212C257.83 372.289 259.386 376.337 260.657 380.48L261.007 381.625C262.159 385.437 263.103 389.197 261.81 393.115C261.371 394.448 259.553 394.763 258.798 393.509C256.135 389.085 255.471 383.762 253.802 378.898C252.175 374.158 250.306 369.504 248.735 364.744C246.711 358.616 245.357 352.02 246.092 345.592C246.07 345.555 246.046 345.52 246.028 345.48L245.513 344.353C244.108 341.302 242.752 338.637 240.197 336.204C237.533 333.667 234.64 331.421 232.544 328.35C227.99 321.678 230.806 314.256 231.356 306.962L231.419 306.067C231.519 304.552 231.574 302.494 230.585 301.446C229.472 300.266 226.862 299.965 225.386 299.442C221.57 298.092 217.81 296.518 214.228 294.629C210.819 292.83 207.517 290.843 204.442 288.516L202.884 287.343C200.425 285.488 197.875 283.461 196.227 280.936C196.037 280.645 196.36 280.176 196.705 280.315C199.456 281.432 201.969 283.207 204.543 284.753C204.583 284.658 204.63 284.563 204.683 284.468C207.867 278.704 209.177 272.317 208.668 265.761ZM296.548 305.254C297.644 302.248 302.64 302.48 302.44 306.052C302.288 308.796 301.123 311.272 300.058 313.764L299.944 314.031C298.844 316.627 297.574 319.064 296.054 321.443C293.151 325.991 289.749 330.212 286.116 334.195C282.822 337.806 278.499 340.015 273.517 339.648C271.419 339.493 269.3 338.959 267.46 337.911C265.276 336.665 262.903 332.924 260.116 333.83C259.847 333.917 259.595 333.523 259.828 333.335C263.046 330.744 266.698 334.762 269.778 335.73C274.42 337.189 279.184 335.576 282.171 331.823C285.291 327.905 288.162 323.518 290.783 319.251C292.115 317.085 293.33 314.837 294.379 312.519C295.437 310.18 295.678 307.639 296.548 305.254ZM289.066 286.754C288.93 286.339 289.446 285.944 289.811 286.181C291.925 287.558 293.757 289.376 295.707 290.971C297.871 292.739 300.051 294.472 302.264 296.178C305.491 298.666 301.748 303.246 298.908 300.528C295.021 296.811 290.764 291.95 289.066 286.754ZM277.458 272.204C278.317 268.891 283.397 270.257 282.657 273.531L282.632 273.631C281.23 279.038 283.227 284.544 287.49 288.049L287.647 288.177C290.344 290.335 286.523 294.109 283.853 291.971C278.023 287.305 275.598 279.378 277.458 272.204Z" fill="black"/>
<path fill-rule="evenodd" clip-rule="evenodd" d="M247.762 79.5969C267.898 79.5969 292.058 89.3802 294.112 89.5759L294.167 89.5788C295.248 89.5788 299.471 92.8032 306.836 99.2518L298.859 114.845L299.504 115.463C302.594 118.431 305.231 121.137 307.313 123.27C324.309 140.684 327.364 209.058 323.359 232.902C319.353 256.747 311.934 280.079 277.394 280.079C242.853 280.079 204.426 259.264 198.507 252.782C194.561 248.461 190.128 246.391 185.209 246.572C185.007 246.316 184.806 246.061 184.607 245.807L183.883 245.704C177.075 244.716 172.197 243.386 169.249 241.714C163.491 238.449 157.162 221.285 157.162 217.504C157.162 213.761 147.711 186.53 147.522 183.648L147.52 183.569C147.52 181.16 135.173 170.086 135.173 166.569C135.173 163.052 132.685 163.265 135.173 150.873L135.896 147.232C138.545 134.037 143.728 112.189 163.491 102.695C185.209 92.2624 227.422 79.5969 247.762 79.5969Z" fill="#FAFAFA"/>
<path fill-rule="evenodd" clip-rule="evenodd" d="M304.572 103.804C298.43 103.986 291.316 104.262 283.833 104.678C272.746 105.295 260.858 106.219 250.127 107.605C239.38 108.992 229.849 110.835 223.446 113.271C217.195 115.648 212.024 121.393 207.785 128.83C203.555 136.252 200.312 145.257 197.868 153.99C195.426 162.717 193.791 171.141 192.766 177.386C192.254 180.508 191.895 183.083 191.664 184.877C191.548 185.773 191.465 186.474 191.41 186.951C191.383 187.189 191.363 187.371 191.35 187.493L191.335 187.631L191.331 187.665L191.331 187.673L191.33 187.675C191.33 187.675 191.33 187.676 190.584 187.6L191.33 187.676L191.288 188.096L190.906 188.277L190.905 188.278L190.901 188.28L190.882 188.288L190.807 188.325C190.74 188.357 190.64 188.406 190.509 188.471C190.247 188.6 189.862 188.794 189.37 189.048C188.386 189.557 186.979 190.31 185.289 191.281C181.907 193.224 177.403 196.039 172.902 199.526C170.654 201.268 169.279 202.563 168.471 203.517C167.641 204.496 167.498 205.013 167.495 205.209C167.494 205.287 167.501 205.315 167.614 205.369C167.678 205.399 167.753 205.42 167.817 205.432C167.848 205.438 167.872 205.441 167.886 205.443L167.892 205.444L167.894 205.444L167.897 205.444L167.898 205.444L168.62 205.481L168.601 206.212L167.851 206.193L168.601 206.212L168.601 206.212L168.601 206.214L168.6 206.222L168.6 206.253L168.597 206.378C168.595 206.488 168.592 206.651 168.59 206.861C168.584 207.28 168.58 207.888 168.584 208.636C168.591 210.132 168.629 212.188 168.754 214.428C168.879 216.67 169.091 219.085 169.442 221.303C169.795 223.534 170.282 225.513 170.935 226.91C171.524 228.167 172.891 229.257 174.785 230.172C176.657 231.076 178.927 231.753 181.144 232.252C183.356 232.751 185.486 233.066 187.066 233.256C187.855 233.351 188.504 233.415 188.956 233.455C189.181 233.475 189.357 233.489 189.476 233.498C189.536 233.503 189.581 233.506 189.611 233.508L189.644 233.51L189.652 233.511L189.654 233.511H189.654L190.176 233.544L190.325 234.045L193.129 243.456L193.17 243.593L193.157 243.736L192.745 248.378C192.268 248.134 191.785 247.917 191.297 247.726L191.65 243.746L189.035 234.968C188.97 234.962 188.899 234.956 188.823 234.949C188.358 234.908 187.693 234.843 186.886 234.745C185.274 234.551 183.091 234.228 180.814 233.716C178.544 233.204 176.15 232.497 174.133 231.522C172.137 230.558 170.386 229.275 169.577 227.546C168.833 225.956 168.32 223.811 167.96 221.538C167.598 219.252 167.383 216.782 167.256 214.512C167.13 212.24 167.091 210.157 167.084 208.643C167.08 207.885 167.084 207.269 167.09 206.842L167.091 206.776C167.052 206.76 167.012 206.743 166.972 206.724C166.528 206.514 165.983 206.046 165.996 205.187C166.007 204.447 166.445 203.588 167.327 202.547C168.23 201.48 169.697 200.112 171.984 198.34C176.554 194.799 181.12 191.947 184.541 189.98C186.253 188.997 187.68 188.234 188.68 187.716C189.181 187.457 189.575 187.259 189.844 187.126L189.883 187.107C189.893 187.013 189.906 186.904 189.92 186.78C189.975 186.297 190.06 185.589 190.176 184.685C190.409 182.877 190.771 180.284 191.286 177.143C192.317 170.863 193.962 162.382 196.424 153.585C198.884 144.795 202.167 135.659 206.482 128.088C210.789 120.531 216.183 114.428 222.913 111.869C229.49 109.367 239.169 107.507 249.935 106.117C260.716 104.725 272.643 103.798 283.749 103.181C291.584 102.745 299.015 102.463 305.351 102.28L304.572 103.804Z" fill="white"/>
<path fill-rule="evenodd" clip-rule="evenodd" d="M160.139 102.205C170.97 90.6831 232.461 72.8613 263.571 76.6391L264.505 76.7602C266.987 77.0757 269.434 77.5535 271.849 78.2026C279.654 80.0295 287.716 82.7957 294.165 87.4164C299.549 91.1964 316.533 97.3694 311.527 107.258C313.383 110.782 314.076 115.137 312.822 118.608C312.664 119.807 312.295 120.911 311.823 122.056C315.789 127.921 318.928 134.553 321.47 140.861C325.911 156.737 328.675 173.259 329.08 189.457C330.426 220.23 327.059 256.99 300.316 276.889C284.161 289.499 258.854 289.923 240.699 274.288C239.668 273.066 234.823 269.768 236.44 269.19C236.921 269.699 237.416 270.195 237.92 270.682C237.897 270.628 237.892 270.574 237.902 270.515L237.428 270.085C236.536 269.258 235.38 268.058 236.696 268.293C236.754 268.361 236.818 268.419 236.88 268.487C237.159 268.654 237.37 268.8 237.534 268.928L237.618 268.995L237.592 268.968C236.834 268.158 236.379 267.331 237.513 267.859L237.663 267.932C238.167 268.464 238.679 268.974 239.201 269.469C239.192 269.411 239.201 269.352 239.233 269.289L238.746 268.818C238.272 268.352 238.344 268.35 238.576 267.973C237.567 266.555 239.451 267.397 239.583 267.95C240.762 267.671 241.797 269.889 242.556 270.159C275.837 295.802 324.135 273.049 323.353 201.594L323.341 200.196C323.112 177.347 321.194 153.864 311.764 133.181C310.847 131.188 309.821 129.25 308.693 127.375C307.915 125.969 307.083 124.598 306.188 123.264C303.682 123.061 301.208 122.601 298.771 121.889C297.934 121.677 297.107 121.443 296.28 121.168C284.19 121.829 272.37 122.548 260.247 123.229L256.46 123.466C246.191 124.127 235.57 125.187 227.283 131.553C219.151 137.349 219.114 148.778 212.153 155.141C202.227 161.893 202.155 167.981 200.243 177.931C200.385 185.432 205.574 196.329 196.052 199.486C197.658 201.782 195.419 200.679 195.243 199.874C195.225 199.878 195.207 199.883 195.193 199.883C196.625 202.55 194.52 200.87 194.334 200.013C194.222 199.982 194.109 199.901 193.997 199.788C195.439 202.125 193.108 200.488 193.246 200.063C190.458 195.77 184.722 195.103 180.679 196.241C180.63 196.394 180.45 196.407 180.338 196.326C163.145 200.06 167.581 235.731 185.2 232.283C185.954 232.128 185.936 232.491 186.086 232.526C185.679 231.455 186.826 231.891 186.814 232.116L186.884 232.112C186.939 232.107 186.916 232.101 186.958 232.116C186.564 229.926 188.779 233.099 188.604 233.229C188.672 233.189 188.748 233.166 188.816 233.157L188.739 232.949C188.372 231.968 188.403 232.376 188.406 231.814C188.13 231.119 188.109 231.423 188.174 230.97C189.145 230.217 189.431 232.503 189.755 232.67C189.2 231.895 189.641 231.262 190.165 231.683C194.133 240.048 199.259 247.907 205.883 254.099C206.608 254.671 207.341 255.235 208.101 255.767C210.918 258.226 215.24 259.808 217.878 261.987C217.878 262.023 217.861 262.068 217.834 262.113L217.894 262.168V262.168L217.955 262.226L218.873 262.668C219.142 262.897 219.385 263.154 219.601 263.438C219.831 263.704 220.032 263.997 220.204 264.308C220.289 264.687 220.1 264.845 219.741 264.682C219.583 264.628 219.426 264.565 219.268 264.507C219.277 264.52 219.281 264.529 219.291 264.538C219.342 264.616 219.692 265.428 219.289 265.296L219.241 265.277C219.021 265.196 218.801 265.106 218.585 265.021C218.841 265.341 219.075 265.688 219.281 265.981C219.502 266.21 219.637 266.481 219.691 266.787C219.682 266.959 219.588 267.031 219.417 267.008C219.156 266.923 218.9 266.833 218.643 266.738L218.716 266.878C218.897 267.235 219.155 267.835 218.697 267.635C218.305 267.513 217.928 267.373 217.55 267.22C217.518 267.283 217.456 267.306 217.33 267.247C216.129 266.819 214.969 266.296 213.858 265.679C212.882 264.966 211.896 264.268 210.916 263.56C209.994 263.006 209.103 262.388 208.254 261.694C202.566 258.012 197.587 253.335 193.637 248.126C187.03 253.86 173.822 248.382 165.651 243.894C158.424 239.882 155.583 232.465 154.849 224.467C153.322 213.701 144.543 210.015 145.153 186.392C145.14 186.396 145.126 186.396 145.108 186.396C144.789 186.302 144.479 186.175 144.187 186.013C143.885 185.869 143.602 185.698 143.336 185.49L143.008 185.035V185.035C142.837 184.94 142.684 184.841 142.567 184.742L142.507 184.82C142.315 185.052 142.444 184.703 142.455 184.634L141.885 183.856C140.532 182.006 139.049 179.93 137.84 178.269L137.802 178.337C137.775 178.388 137.76 178.424 137.773 178.44C134.897 174.299 132.192 169.297 131.441 164.454C130.553 160.723 130.9 156.879 131.674 153.424C134.993 141.323 145.864 113.941 160.139 102.205ZM238.192 269.547L238.012 269.387L238.171 269.586C238.254 269.688 238.339 269.781 238.477 269.875C238.468 269.844 238.468 269.812 238.472 269.776C238.38 269.706 238.287 269.629 238.192 269.547ZM263.433 82.7191C242.336 80.9012 221.586 85.5592 201.454 91.1977L200.065 91.5977C188.618 94.8713 176.514 97.817 166.84 104.824C153.325 115.199 146.345 131.703 140.255 146.942C134.936 158.264 137.655 171.03 145.67 178.936C146.504 171.08 147.925 163.454 150.147 155.889C150.611 154.707 150.26 154.32 151.259 154.166C152.769 174.552 145.335 189.614 160.046 213.776C166.429 225.176 159.04 233.518 177.066 239.517L177.554 239.703C181.309 241.124 185.411 242.245 189.089 241.451L188.759 240.914C188.423 240.36 188.321 240.092 188.81 239.855C188.797 239.828 188.779 239.801 188.761 239.769C188.365 239.021 187.983 238.264 187.618 237.498C187.47 237.547 187.322 237.583 187.168 237.624C187.268 237.809 187.281 237.993 187.003 238.057C186.011 238.397 184.994 238.534 183.952 238.47L183.728 238.453C182.551 238.381 181.81 238.166 181.146 237.966C180.926 237.93 180.706 237.894 180.49 237.849C178.356 237.375 176.096 236.169 174.634 234.973C157.967 225.486 159.69 193.19 180.234 190.137C180.655 169.803 190.306 135.497 206.321 116.121C220.798 98.2979 260.32 90.5729 287.816 93.2968C288.216 93.4298 288.617 93.5641 289.018 93.6998C293.26 94.0775 297.303 95.9716 301.548 96.8514C298.5 94.5621 295.042 93.0372 291.481 91.7413C284.384 87.3911 276.249 85.0373 268.39 83.3772C266.762 82.976 265.111 82.7551 263.433 82.7191ZM179.294 206.472C180.399 205.871 180.273 206.452 180.527 206.283C188.472 205.634 197.039 212.605 201.481 218.417C201.13 218.782 200.181 217.701 200.014 217.529C199.992 217.552 199.965 217.57 199.938 217.579L200.062 217.754C201.862 220.343 198.293 217.296 197.959 216.668C197.901 216.7 197.842 216.718 197.775 216.705C198.058 216.983 198.922 217.708 199.07 218.224L199.299 218.415C201.459 220.268 201.28 221.663 198.828 219.03C198.886 219.152 198.908 219.265 198.868 219.355L198.952 219.411C200.158 220.256 201.15 222.61 198.629 220.193C198.891 221.958 196.132 218.547 196.043 218.571C191.268 214.814 184.237 211.16 178.246 210.669L178.04 210.645C176.941 210.504 176.421 210.177 176.807 209.456C175.453 209.134 175.771 208.466 176.411 208.487C175.457 207.858 176.316 207.256 176.87 207.491C176.489 206.434 178.017 207.138 178.156 206.991C178.949 205.765 179.163 206.788 179.294 206.472ZM162.64 140.956C166.456 139.555 177.728 143.749 176.827 149.303C176.29 150.578 174.52 151.309 173.277 150.589L171.654 149.496C168.829 147.601 166.282 145.938 163.249 144.285C161.598 143.464 160.888 141.721 162.64 140.956ZM184.351 132.702L182.878 131.741C174.924 126.524 163.681 118.619 183.621 126.798C185.893 127.775 188.913 128.352 190.153 130.521C192.101 134.519 186.974 134.788 184.351 132.702ZM185.246 109.295C184.607 106.868 192.549 109.716 194.86 110.467L195.212 110.6C197.461 111.44 200.039 112.219 201.384 114.164C202.96 116.852 199.77 117.408 197.795 116.194C193.744 113.541 189.302 111.539 185.246 109.295ZM205.439 97.9881C200.969 93.096 212.932 97.7825 214.724 99.0834L214.775 99.1218C216.112 100.065 215.841 102.097 214.585 102.694C211.011 102.762 208.381 99.7763 205.439 97.9881ZM225.78 92.6283C218.674 87.51 228.034 89.9445 231.286 91.9503C233.502 93.9088 231.219 97.2151 225.78 92.6283Z" fill="black"/>
<path fill-rule="evenodd" clip-rule="evenodd" d="M275.391 245.572C272.361 244.336 269.658 242.274 267.682 239.64C266.995 238.725 266.816 237.758 266.961 236.873C267.123 235.879 267.711 234.977 268.513 234.373C269.318 233.767 270.324 233.467 271.298 233.62C272.143 233.752 272.985 234.215 273.651 235.176L273.791 235.368C274.966 236.958 276.497 238.262 278.241 239.103C279.923 239.913 281.803 240.291 283.75 240.071C287.456 239.653 290.011 237.648 292.726 234.926C293.063 234.582 293.4 234.227 293.738 233.867C293.952 233.541 294.248 233.331 294.578 233.221C294.943 233.098 295.357 233.105 295.736 233.238C296.101 233.365 296.428 233.607 296.647 233.928C296.855 234.234 296.973 234.612 296.935 235.046C296.686 237.867 295.211 240.385 293.116 242.362C290.789 244.558 287.705 246.077 284.802 246.61C281.602 247.197 278.343 246.776 275.391 245.572V245.572ZM286.311 202.048C289.714 204.117 294.9 208.941 291.239 214.071C286.929 218.593 280.724 213.408 277.666 211.063C274.831 209.245 271.645 213.92 274.276 216.042C296.371 232.402 305.338 202.589 288.032 199.615C286.127 199.288 285.419 201.408 286.311 202.048ZM246.716 183.017C247.092 178.349 254.201 177.289 254.908 181.908C255.541 186.046 254.796 189.847 252.932 193.573C251.151 197.132 246.676 195.471 246.337 192.23C245.883 187.886 246.482 185.921 246.716 183.017ZM300.829 180.95C301.82 179.652 303.251 178.766 304.966 179.267C310.323 180.832 308.744 188.438 306.863 192.14C305.84 194.15 302.536 194.66 301.043 192.89C298.609 190.003 297.444 184.239 300.538 181.395C300.622 181.248 300.715 181.1 300.829 180.95ZM252.857 162.591L253.703 162.443C256.32 161.99 259.575 161.555 261.427 163.66C262.409 164.776 262.747 166.85 261.427 167.918C259.105 169.798 256.537 169.07 253.755 169.229C251.462 169.36 249.258 169.74 247.049 170.371C242.203 171.756 238.254 174.285 234.115 177.062C233.572 177.426 233.018 176.731 233.277 176.223C235.666 171.543 240.296 167.699 244.934 165.355C247.409 164.105 250.118 163.067 252.857 162.591ZM295.946 160.494L296.594 160.627C303.642 162.1 312.798 165.043 316.136 171.967C316.263 172.946 316.129 173.155 316.019 173.293L315.983 173.338C315.893 173.455 315.821 173.617 315.397 173.75C315.279 173.722 315.16 173.692 315.04 173.661C313.51 173.26 312.3 172.707 311.128 172.134L309.858 171.508C308.383 170.785 306.896 170.089 305.32 169.575C301.957 168.477 298.498 167.705 294.985 167.292C294.224 167.203 293.49 166.946 292.912 166.505C292.363 166.087 291.943 165.508 291.752 164.739C291.504 163.743 291.576 162.989 292.11 162.091C292.511 161.416 293.086 160.949 293.746 160.68C294.419 160.406 295.185 160.342 295.946 160.494Z" fill="black"/>
<path fill-rule="evenodd" clip-rule="evenodd" d="M324.314 206.083C321.279 210.16 315.654 211.458 310.465 211.01C299.273 209.933 295.751 197.221 295.384 187.341C302.889 189.452 294.749 174.499 320.403 172.855C329.446 172.101 326.953 177.563 330.949 181.554C330.867 189.93 329.473 199.031 324.314 206.083M271.009 196.458C264.401 227.404 228.22 220.043 224.419 192.148C227.929 189.67 227.004 183.553 231.364 181.337C238.274 176.921 246.913 177.11 254.76 177.214C264.79 177.903 267.649 182.059 272.801 186.592C272.553 189.62 271.838 193.209 271.009 196.458M338.647 167.73C338.276 167.668 337.904 167.61 337.533 167.555C337.243 167.391 336.903 167.264 336.507 167.188C335.604 166.959 334.706 166.804 333.81 166.721C320.951 163.826 291.201 167.936 289.973 178.911C285.878 180.278 282.335 179.054 277.588 179.175C273.976 164.073 211.516 166.204 208.512 175.31C208.5 175.306 208.489 175.304 208.477 175.3C205.591 174.407 201.336 174.622 198.032 174.481C190.978 174.333 183.916 174.962 177.015 176.45C164.091 178.504 146.452 180.908 155.441 197.049C155.443 197.052 155.444 197.055 155.446 197.057L155.448 197.056C156.997 198.644 159.626 197.365 159.723 195.216C156.701 187.569 163.527 186.651 168.779 184.454C181.846 179.759 195.15 179.108 208.664 180.56C209.681 181.757 211.224 182.801 212.855 183.347C221.891 184.848 217.129 191.551 222.84 192.526C221.791 215.894 250.159 228.649 266.596 213.288C273.158 206.871 274.723 197.365 276.244 188.797C277.049 188.616 277.561 188.176 277.859 187.594C279.794 185.662 281.01 183.878 284.836 183.347C288.662 182.817 291.607 183.882 292.006 184.207C292.106 184.41 292.214 184.613 292.339 184.816C292.514 185.118 292.752 185.359 293.022 185.549C289.244 208.818 307.307 223.535 325.542 211.466C333.465 204.012 335.14 192.6 335.471 182.413C336.545 181.765 337.225 180.509 336.853 178.93C336.34 176.752 337.542 174.867 339.456 173.921C341.942 172.692 341.502 168.203 338.647 167.73" fill="black"/>
</g>
<defs>
<clipPath id="clip0">
<rect width="879" height="573" fill="white"/>
</clipPath>
</defs>
</svg>
