<svg width="300" height="300" viewBox="0 0 300 300" fill="none" xmlns="http://www.w3.org/2000/svg">
<path fill-rule="evenodd" clip-rule="evenodd" d="M25 149.845C25 88.6269 74.6269 39 135.845 39C197.063 39 246.69 88.6269 246.69 149.845C246.69 211.063 197.063 260.69 135.845 260.69C74.6269 260.69 25 211.063 25 149.845ZM103.84 243.023C122.42 251.551 143.943 253.736 163.824 248.908C194.666 241.419 220.715 218.093 233.692 189.13C241.262 172.234 244.524 152.25 237.029 135.321C235.202 131.194 232.791 127.364 230.38 123.535C227.761 119.374 225.142 115.215 223.276 110.679C221.655 106.738 220.635 102.59 219.614 98.4428C218.577 94.2285 217.541 90.0145 215.874 86.0181C209.645 71.0849 195.317 60.9414 180.317 54.875C159.687 46.5819 137.074 44.5391 115.293 49.001C108.114 50.4871 100.981 52.7227 94.8377 56.7225C89.4639 60.2208 85.0497 64.9247 80.6457 69.6177C79.4777 70.8623 78.3103 72.1062 77.126 73.3267C74.3722 76.1645 71.5113 78.8831 68.6606 81.5919C59.5051 90.2918 50.4556 98.8911 45.4019 111.016C39.6092 124.915 39.8045 143.315 51.0046 154.554C53.4242 156.982 56.2137 159.122 58.9924 161.254C64.4851 165.467 69.9356 169.648 72.4035 175.958C74.8658 182.254 73.7226 189.166 72.6025 195.938L72.6024 195.939L72.6024 195.939L72.6024 195.939L72.6024 195.939C72.3835 197.262 72.1656 198.58 71.9755 199.887C68.8611 221.307 86.1429 234.9 103.84 243.023ZM106.54 165.134C106.714 164.716 106.795 164.265 106.779 163.813C106.8 163.215 106.631 162.626 106.297 162.13C105.962 161.634 105.478 161.258 104.915 161.054L78.5988 150.021L104.915 138.987C105.478 138.784 105.962 138.408 106.297 137.912C106.632 137.416 106.801 136.827 106.779 136.229C106.795 135.776 106.714 135.326 106.54 134.908C106.366 134.49 106.105 134.114 105.773 133.806C105.093 133.182 104.197 132.847 103.275 132.874C102.636 132.883 102.004 133.009 101.411 133.247L73.753 145.1C72.7475 145.468 71.8857 146.147 71.2928 147.039C70.7006 147.92 70.3887 148.959 70.3982 150.021C70.3775 151.096 70.69 152.15 71.2928 153.04C71.9047 153.923 72.7592 154.609 73.753 155.016L101.411 166.795C101.999 167.052 102.634 167.179 103.275 167.168C104.197 167.195 105.094 166.86 105.773 166.236C106.105 165.928 106.367 165.552 106.54 165.134ZM130.56 119.679C130.413 119.246 130.338 118.793 130.336 118.337C130.324 117.849 130.421 117.364 130.621 116.919C130.821 116.474 131.119 116.079 131.492 115.765C132.217 115.11 133.161 114.751 134.138 114.758C134.911 114.751 135.667 114.986 136.3 115.429C136.994 115.946 137.493 116.681 137.717 117.517L155.013 171.715C155.159 172.147 155.235 172.601 155.236 173.057C155.248 173.545 155.151 174.029 154.951 174.475C154.751 174.92 154.453 175.314 154.081 175.629C153.355 176.283 152.411 176.642 151.434 176.636C150.661 176.643 149.905 176.408 149.272 175.965C148.578 175.448 148.079 174.713 147.856 173.877L130.56 119.679ZM215.175 150.021C215.184 148.959 214.872 147.92 214.28 147.039C213.687 146.147 212.825 145.468 211.82 145.1L184.161 133.247C183.568 133.009 182.936 132.883 182.298 132.874C181.375 132.847 180.479 133.182 179.8 133.806C179.468 134.114 179.206 134.49 179.033 134.908C178.859 135.326 178.778 135.776 178.794 136.229C178.772 136.827 178.94 137.416 179.275 137.912C179.611 138.408 180.094 138.784 180.657 138.987L206.974 150.021L180.657 161.054C180.095 161.257 179.611 161.634 179.276 162.13C178.941 162.626 178.772 163.215 178.794 163.813C178.777 164.265 178.859 164.716 179.032 165.134C179.206 165.552 179.468 165.928 179.8 166.236C180.479 166.861 181.375 167.195 182.298 167.168C182.938 167.179 183.574 167.052 184.161 166.795L211.82 155.016C212.814 154.609 213.668 153.923 214.28 153.04C214.883 152.15 215.195 151.096 215.175 150.021ZM250.652 177.105C250.612 177.104 250.572 177.103 250.531 177.102C249.071 177.077 247.366 177.351 246.659 178.629C246.296 179.285 246.291 180.047 246.286 180.811C246.283 181.144 246.281 181.477 246.249 181.803C246.159 182.723 245.827 183.589 245.493 184.457L245.493 184.457C245.305 184.947 245.117 185.436 244.972 185.937C244.115 188.896 246.408 192.468 249.761 191.75C251.302 191.421 252.576 190.342 253.615 189.157C254.831 187.769 255.818 186.196 256.537 184.496C258.474 179.912 254.887 177.205 250.652 177.105ZM251.781 141.021C251.82 140.89 251.863 140.763 251.911 140.639C253.35 136.95 258.438 136.624 261.711 137.502C265.319 138.471 268.389 140.978 270.652 143.883C273.362 147.303 274.888 151.511 274.999 155.873C275.097 163.91 268.445 173.266 259.687 172.521C259.325 172.491 258.964 172.445 258.606 172.387C250.356 171.042 247.417 161.278 250.605 154.352C250.69 154.168 250.775 153.985 250.859 153.804C251.93 151.501 252.919 149.374 252.425 146.705C252.332 146.202 252.202 145.703 252.073 145.205C251.715 143.828 251.358 142.456 251.781 141.021Z" fill="#231F20"/>
</svg>
